<svg width="20" height="20" viewBox="0 0 20 20" fill="none" xmlns="http://www.w3.org/2000/svg">
<path fill-rule="evenodd" clip-rule="evenodd" d="M12.2975 2.18389C13.8214 0.660058 16.292 0.660058 17.8158 2.18389C19.3396 3.70772 19.3396 6.17834 17.8158 7.70217L9.91138 15.6066C9.45978 16.0582 9.19394 16.3241 8.8982 16.5548C8.54962 16.8266 8.17245 17.0597 7.77338 17.2499C7.43479 17.4113 7.07811 17.5302 6.47219 17.7321L3.69625 18.6574L3.02785 18.8802C2.48572 19.0609 1.88801 18.9198 1.48393 18.5158C1.07984 18.1117 0.938744 17.514 1.11946 16.9718L2.26756 13.5275C2.46951 12.9216 2.58839 12.5649 2.74976 12.2263C2.93995 11.8272 3.17305 11.4501 3.44494 11.1015C3.67562 10.8057 3.94148 10.5399 4.39313 10.0883L12.2975 2.18389ZM3.66742 17.3494L6.03535 16.5601C6.69461 16.3404 6.97472 16.2459 7.2356 16.1215C7.55272 15.9704 7.85243 15.7852 8.12943 15.5691C8.3573 15.3914 8.5671 15.1831 9.05849 14.6917L15.3664 8.38382C14.7092 8.15203 13.8625 7.72237 13.0699 6.92977C12.2773 6.13717 11.8477 5.29051 11.6159 4.63331L5.30797 10.9412C4.81659 11.4326 4.60832 11.6424 4.43058 11.8703C4.21453 12.1473 4.0293 12.447 3.87816 12.7641C3.75383 13.025 3.65932 13.3051 3.43957 13.9643L2.65026 16.3323L3.66742 17.3494ZM12.6298 3.61939C12.6583 3.76519 12.7065 3.96338 12.7868 4.19508C12.9678 4.7167 13.3097 5.40175 13.9538 6.04589C14.5979 6.69002 15.283 7.03188 15.8046 7.21285C16.0363 7.29323 16.2345 7.3414 16.3803 7.3699L16.9319 6.81829C17.9676 5.78261 17.9676 4.10345 16.9319 3.06777C15.8962 2.0321 14.2171 2.0321 13.1814 3.06777L12.6298 3.61939Z" fill="#BBBBBB"/>
</svg>
